<svg viewBox="0 0 28 27" fill="none" xmlns="http://www.w3.org/2000/svg">
<path d="M9.35419 24C10.0593 24.6224 10.9856 25 12 25C13.0145 25 13.9407 24.6224 14.6458 24M18 11C18 9.4087 17.3679 7.88258 16.2427 6.75736C15.1174 5.63214 13.5913 5 12 5C10.4087 5 8.8826 5.63214 7.75738 6.75736C6.63216 7.88258 6.00002 9.4087 6.00002 11C6.00002 14.0902 5.22049 16.206 4.34968 17.6054C3.61515 18.7859 3.24788 19.3761 3.26134 19.5408C3.27626 19.7231 3.31488 19.7926 3.46179 19.9016C3.59448 20 4.19261 20 5.38887 20H18.6112C19.8074 20 20.4056 20 20.5382 19.9016C20.6852 19.7926 20.7238 19.7231 20.7387 19.5408C20.7522 19.3761 20.3849 18.7859 19.6504 17.6054C18.7795 16.206 18 14.0902 18 11Z" stroke="white" stroke-width="2" stroke-linecap="round" stroke-linejoin="round"/>
<circle cx="24.5" cy="3" r="3" fill="#D343F1"/>
</svg>
