<svg viewBox="0 0 200 50" fill="none" xmlns="http://www.w3.org/2000/svg">
<path d="M191.495 35.0478C190.414 35.0478 189.599 34.7729 189.049 34.2232C188.5 33.6545 188.225 32.8584 188.225 31.8347V22.7927H185.922V20.262H187.173C187.685 20.262 188.035 20.1483 188.225 19.9208C188.433 19.6933 188.538 19.3237 188.538 18.8119V16.2244H191.324V20.262H194.423V22.7927H191.324V32.5172H194.196V35.0478H191.495Z" fill="white"/>
<path d="M171.19 35.0479V20.2621H174.29V22.7074H174.432C174.754 21.9113 175.238 21.2478 175.882 20.7171C176.546 20.1863 177.446 19.9209 178.583 19.9209C180.1 19.9209 181.275 20.4232 182.109 21.4279C182.962 22.4136 183.389 23.8259 183.389 25.6646V35.0479H180.289V26.0627C180.289 23.75 179.361 22.5937 177.503 22.5937C177.105 22.5937 176.707 22.6506 176.309 22.7643C175.929 22.8591 175.588 23.0107 175.285 23.2193C174.982 23.4278 174.735 23.6932 174.546 24.0154C174.375 24.3377 174.29 24.7168 174.29 25.1528V35.0479H171.19Z" fill="white"/>
<path d="M161.475 35.3891C160.414 35.3891 159.466 35.209 158.632 34.8488C157.798 34.4887 157.087 33.9769 156.499 33.3134C155.912 32.631 155.457 31.8159 155.135 30.8681C154.831 29.9013 154.68 28.8303 154.68 27.655C154.68 26.4797 154.831 25.4182 155.135 24.4704C155.457 23.5036 155.912 22.6885 156.499 22.025C157.087 21.3426 157.798 20.8213 158.632 20.4611C159.466 20.101 160.414 19.9209 161.475 19.9209C162.556 19.9209 163.504 20.1105 164.319 20.4896C165.153 20.8687 165.845 21.3995 166.395 22.0819C166.944 22.7454 167.352 23.5226 167.617 24.4135C167.902 25.3044 168.044 26.2617 168.044 27.2854V28.4512H157.893V28.9345C157.893 30.0719 158.224 31.0102 158.888 31.7495C159.57 32.4699 160.537 32.83 161.788 32.83C162.698 32.83 163.466 32.631 164.091 32.2329C164.717 31.8348 165.248 31.2946 165.684 30.6122L167.504 32.4035C166.954 33.3134 166.158 34.0432 165.115 34.5929C164.072 35.1237 162.859 35.3891 161.475 35.3891ZM161.475 22.3378C160.945 22.3378 160.452 22.4326 159.997 22.6221C159.561 22.8117 159.182 23.0771 158.86 23.4183C158.556 23.7595 158.319 24.1671 158.149 24.641C157.978 25.1149 157.893 25.6362 157.893 26.2049V26.4039H164.774V26.1196C164.774 24.9822 164.48 24.0723 163.892 23.3899C163.305 22.6885 162.499 22.3378 161.475 22.3378Z" fill="white"/>
<path d="M147.346 35.3891C146.285 35.3891 145.337 35.209 144.503 34.8488C143.669 34.4887 142.968 33.9769 142.399 33.3134C141.83 32.631 141.394 31.8159 141.091 30.8681C140.788 29.9013 140.636 28.8303 140.636 27.655C140.636 26.4797 140.788 25.4182 141.091 24.4704C141.394 23.5036 141.83 22.6885 142.399 22.025C142.968 21.3426 143.669 20.8213 144.503 20.4611C145.337 20.101 146.285 19.9209 147.346 19.9209C148.825 19.9209 150.038 20.2526 150.986 20.9161C151.934 21.5796 152.626 22.461 153.062 23.5605L150.503 24.7547C150.294 24.0723 149.924 23.532 149.394 23.134C148.882 22.7169 148.199 22.5084 147.346 22.5084C146.209 22.5084 145.347 22.8686 144.759 23.5889C144.19 24.2903 143.906 25.2097 143.906 26.347V28.9914C143.906 30.1288 144.19 31.0576 144.759 31.778C145.347 32.4793 146.209 32.83 147.346 32.83C148.256 32.83 148.977 32.612 149.507 32.176C150.057 31.7211 150.493 31.124 150.815 30.3847L153.175 31.6358C152.683 32.849 151.943 33.7778 150.958 34.4223C149.972 35.0668 148.768 35.3891 147.346 35.3891Z" fill="white"/>
<path d="M131.169 35.048V20.2622H134.269V23.1056H134.411C134.619 22.3474 135.055 21.6839 135.719 21.1152C136.382 20.5465 137.302 20.2622 138.477 20.2622H139.302V23.2478H138.079C136.847 23.2478 135.899 23.4468 135.236 23.8449C134.591 24.243 134.269 24.8306 134.269 25.6078V35.048H131.169Z" fill="white"/>
<path d="M121.454 35.3891C120.393 35.3891 119.445 35.209 118.611 34.8488C117.777 34.4887 117.066 33.9769 116.478 33.3134C115.891 32.631 115.436 31.8159 115.114 30.8681C114.81 29.9013 114.659 28.8303 114.659 27.655C114.659 26.4797 114.81 25.4182 115.114 24.4704C115.436 23.5036 115.891 22.6885 116.478 22.025C117.066 21.3426 117.777 20.8213 118.611 20.4611C119.445 20.101 120.393 19.9209 121.454 19.9209C122.535 19.9209 123.483 20.1105 124.298 20.4896C125.132 20.8687 125.824 21.3995 126.374 22.0819C126.923 22.7454 127.331 23.5226 127.596 24.4135C127.881 25.3044 128.023 26.2617 128.023 27.2854V28.4512H117.872V28.9345C117.872 30.0719 118.203 31.0102 118.867 31.7495C119.549 32.4699 120.516 32.83 121.767 32.83C122.677 32.83 123.445 32.631 124.07 32.2329C124.696 31.8348 125.227 31.2946 125.663 30.6122L127.483 32.4035C126.933 33.3134 126.137 34.0432 125.094 34.5929C124.051 35.1237 122.838 35.3891 121.454 35.3891ZM121.454 22.3378C120.924 22.3378 120.431 22.4326 119.976 22.6221C119.54 22.8117 119.161 23.0771 118.839 23.4183C118.535 23.7595 118.298 24.1671 118.128 24.641C117.957 25.1149 117.872 25.6362 117.872 26.2049V26.4039H124.753V26.1196C124.753 24.9822 124.459 24.0723 123.871 23.3899C123.284 22.6885 122.478 22.3378 121.454 22.3378Z" fill="white"/>
<path d="M99.111 20.2621H102.21V22.7074H102.352C102.675 21.8165 103.196 21.1341 103.916 20.6602C104.656 20.1673 105.518 19.9209 106.504 19.9209C108.381 19.9209 109.831 20.6033 110.854 21.9682C111.878 23.314 112.39 25.2097 112.39 27.655C112.39 30.1003 111.878 32.0054 110.854 33.3703C109.831 34.7162 108.381 35.3891 106.504 35.3891C105.518 35.3891 104.656 35.1427 103.916 34.6498C103.196 34.1569 102.675 33.4745 102.352 32.6025H102.21V40.7347H99.111V20.2621ZM105.566 32.7163C106.646 32.7163 107.509 32.3751 108.153 31.6927C108.798 30.9913 109.12 30.0719 109.12 28.9345V26.3755C109.12 25.2381 108.798 24.3282 108.153 23.6458C107.509 22.9444 106.646 22.5937 105.566 22.5937C104.618 22.5937 103.822 22.8307 103.177 23.3046C102.533 23.7595 102.21 24.3661 102.21 25.1244V30.1856C102.21 30.9439 102.533 31.56 103.177 32.0339C103.822 32.4888 104.618 32.7163 105.566 32.7163Z" fill="white"/>
<path d="M85.7195 35.3891C84.5632 35.3891 83.5396 35.2469 82.6486 34.9626C81.7766 34.6593 81.0373 34.2517 80.4308 33.7399C79.8431 33.2281 79.3882 32.6215 79.0659 31.9201C78.7626 31.2188 78.611 30.4605 78.611 29.6454C78.611 28.3185 78.9711 27.2569 79.6915 26.4608C80.4307 25.6457 81.3975 25.077 82.5917 24.7547V24.5272C81.5681 24.1671 80.7435 23.5984 80.118 22.8212C79.5114 22.044 79.2081 21.0867 79.2081 19.9493C79.2081 19.1911 79.3503 18.4992 79.6346 17.8736C79.9379 17.2481 80.3644 16.7173 80.9141 16.2813C81.4639 15.8264 82.1463 15.4757 82.9614 15.2293C83.7765 14.9828 84.6959 14.8596 85.7195 14.8596C86.7431 14.8596 87.6625 14.9828 88.4776 15.2293C89.2927 15.4757 89.9752 15.8264 90.5249 16.2813C91.0746 16.7173 91.4916 17.2481 91.776 17.8736C92.0793 18.4992 92.2309 19.1911 92.2309 19.9493C92.2309 21.0867 91.9182 22.044 91.2926 22.8212C90.686 23.5984 89.8709 24.1671 88.8473 24.5272V24.7547C90.0415 25.077 90.9988 25.6457 91.7191 26.4608C92.4584 27.2569 92.8281 28.3185 92.8281 29.6454C92.8281 30.4605 92.6669 31.2188 92.3447 31.9201C92.0414 32.6215 91.5864 33.2281 90.9798 33.7399C90.3922 34.2517 89.6529 34.6593 88.762 34.9626C87.89 35.2469 86.8758 35.3891 85.7195 35.3891ZM85.7195 32.8016C86.9137 32.8016 87.8331 32.5267 88.4776 31.977C89.1411 31.4273 89.4728 30.6595 89.4728 29.6738V29.1051C89.4728 28.1194 89.1411 27.3517 88.4776 26.802C87.8331 26.2522 86.9137 25.9774 85.7195 25.9774C84.5253 25.9774 83.5964 26.2522 82.933 26.802C82.2885 27.3517 81.9662 28.1194 81.9662 29.1051V29.6738C81.9662 30.6595 82.2885 31.4273 82.933 31.977C83.5964 32.5267 84.5253 32.8016 85.7195 32.8016ZM85.7195 23.5036C86.819 23.5036 87.653 23.2667 88.2217 22.7928C88.8094 22.3189 89.1032 21.627 89.1032 20.7171V20.2337C89.1032 19.3238 88.8094 18.6319 88.2217 18.158C87.653 17.6841 86.819 17.4471 85.7195 17.4471C84.6201 17.4471 83.7765 17.6841 83.1889 18.158C82.6202 18.6319 82.3358 19.3238 82.3358 20.2337V20.7171C82.3358 21.627 82.6202 22.3189 83.1889 22.7928C83.7765 23.2667 84.6201 23.5036 85.7195 23.5036Z" fill="white"/>
<path d="M75.8925 22.5937C75.8925 24.0344 75.6745 25.3897 75.2385 26.6598C74.8025 27.9299 74.2433 29.0957 73.5609 30.1572C72.8784 31.2188 72.1107 32.1666 71.2577 33.0006C70.4236 33.8347 69.599 34.5171 68.7839 35.0479H64.5188C65.6372 34.2328 66.6419 33.4461 67.5328 32.6879C68.4237 31.9296 69.2009 31.1524 69.8644 30.3563C70.5279 29.5601 71.0776 28.7165 71.5136 27.8256C71.9685 26.9347 72.3192 25.9584 72.5657 24.8969L72.3666 24.84C72.1581 25.2381 71.9117 25.6172 71.6273 25.9774C71.3619 26.3186 71.0397 26.6219 70.6606 26.8873C70.3004 27.1527 69.8834 27.3612 69.4095 27.5128C68.9356 27.6645 68.3858 27.7403 67.7603 27.7403C66.9262 27.7403 66.149 27.5981 65.4287 27.3138C64.7273 27.0295 64.1112 26.6219 63.5805 26.0911C63.0686 25.5414 62.6611 24.8969 62.3578 24.1576C62.0734 23.3994 61.9313 22.5463 61.9313 21.5985C61.9313 20.6128 62.0924 19.7029 62.4147 18.8688C62.7559 18.0348 63.2298 17.3239 63.8364 16.7363C64.443 16.1486 65.1728 15.6937 66.0258 15.3714C66.8788 15.0302 67.8361 14.8596 68.8976 14.8596C69.9971 14.8596 70.9733 15.0397 71.8264 15.3999C72.6984 15.76 73.4282 16.2813 74.0158 16.9637C74.6224 17.6272 75.0868 18.4328 75.4091 19.3807C75.7313 20.3285 75.8925 21.3995 75.8925 22.5937ZM68.8976 25.1528C70.054 25.1528 70.9544 24.8495 71.5989 24.2429C72.2434 23.6173 72.5657 22.7075 72.5657 21.5132V21.1151C72.5657 19.9209 72.2434 19.0205 71.5989 18.4139C70.9544 17.7883 70.054 17.4756 68.8976 17.4756C67.7413 17.4756 66.8409 17.7883 66.1964 18.4139C65.5519 19.0205 65.2296 19.9209 65.2296 21.1151V21.5132C65.2296 22.7075 65.5519 23.6173 66.1964 24.2429C66.8409 24.8495 67.7413 25.1528 68.8976 25.1528Z" fill="white"/>
<path d="M31.6324 14.6222C35.3731 14.7018 38.9672 13.3663 41.8018 11.0322C41.8319 11.0083 41.8738 11.0096 41.9013 11.0375L43.5511 12.7085L43.5615 12.7191L43.5746 12.7257H43.5759L43.5812 12.7297L45.2087 14.3782C45.2362 14.4061 45.2375 14.4485 45.2139 14.479C42.9095 17.3436 41.5884 20.9881 41.6709 24.7797C41.7626 28.9294 44.0892 32.2901 46.9252 35.3523C46.9723 35.4027 46.971 35.4809 46.9225 35.53L41.8202 40.6983C41.7717 40.7473 41.6918 40.7473 41.6434 40.697C35.9846 34.847 35.762 28.3061 36.1063 24.9163C36.2098 23.9097 36.5659 22.5862 37.0255 21.2997C37.485 20.0133 38.0454 18.7706 38.5534 17.9232L38.5822 17.8741L38.4644 17.7415L38.4081 17.776C37.5728 18.2919 36.3446 18.8595 35.0733 19.325C33.8006 19.7918 32.4939 20.1526 31.4989 20.2573C28.1523 20.6061 21.6948 20.3807 15.9194 14.6488C15.8696 14.5997 15.8696 14.5188 15.9181 14.4697L21.0192 9.30278C21.0676 9.25371 21.1449 9.25239 21.1946 9.30013C24.2178 12.1727 27.5356 14.5307 31.6324 14.6222ZM19.8251 31.9943C13.962 31.9943 9.32571 30.0116 5.05213 25.9839C4.98535 25.9216 4.98273 25.8155 5.04427 25.7479L9.30345 21.1671C9.35059 21.1167 9.43046 21.1127 9.48283 21.1618C12.6317 24.114 16.7181 25.9786 21.0126 25.9786C24.4509 25.9786 27.7975 24.7346 30.6072 22.736C30.6216 22.7254 30.6413 22.7281 30.6531 22.74L33.6514 25.777C33.6802 25.8062 33.6802 25.8526 33.6527 25.8818C29.929 29.887 25.6201 31.993 19.8251 31.993V31.9943Z" fill="#8F57FF"/>
</svg>
