<svg width="57" height="40" viewBox="0 0 57 40" fill="none" xmlns="http://www.w3.org/2000/svg">
<path d="M33.3069 10.6888C36.6631 10.7602 39.8877 9.56197 42.431 7.46774C42.4581 7.44632 42.4957 7.44751 42.5203 7.4725L44.0005 8.97178L44.0099 8.9813L44.0216 8.98725H44.0228L44.0275 8.99082L45.4877 10.4699C45.5124 10.4949 45.5136 10.5329 45.4924 10.5603C43.4249 13.1305 42.2396 16.4004 42.3136 19.8023C42.3958 23.5255 44.4833 26.5407 47.0278 29.2882C47.0701 29.3335 47.0689 29.4037 47.0255 29.4477L42.4475 34.0847C42.404 34.1288 42.3324 34.1288 42.2889 34.0836C37.2117 28.8349 37.012 22.9663 37.3209 19.9249C37.4137 19.0217 37.7333 17.8342 38.1456 16.68C38.5579 15.5258 39.0607 14.4108 39.5165 13.6505L39.5424 13.6065L39.4366 13.4875L39.3861 13.5184C38.6366 13.9813 37.5347 14.4906 36.3941 14.9082C35.2522 15.3271 34.0798 15.6507 33.187 15.7447C30.1844 16.0577 24.3906 15.8554 19.2088 10.7126C19.1642 10.6686 19.1642 10.596 19.2077 10.552L23.7844 5.9161C23.8279 5.87208 23.8972 5.87089 23.9419 5.91372C26.6543 8.49106 29.6311 10.6067 33.3069 10.6888ZM22.7131 26.2754C17.4526 26.2754 13.2929 24.4965 9.45851 20.8827C9.3986 20.8268 9.39625 20.7316 9.45146 20.6709L13.2729 16.561C13.3152 16.5158 13.3868 16.5122 13.4338 16.5562C16.2591 19.205 19.9254 20.878 23.7786 20.878C26.8634 20.878 29.8661 19.7618 32.387 17.9687C32.4 17.9591 32.4176 17.9615 32.4282 17.9722L35.1183 20.6971C35.1442 20.7233 35.1442 20.7649 35.1195 20.7911C31.7785 24.3846 27.9125 26.2742 22.7131 26.2742V26.2754Z" fill="#8F57FF"/>
</svg>
