<svg width="20" height="21" viewBox="0 0 20 21" fill="none" xmlns="http://www.w3.org/2000/svg">
<path d="M2.08203 18.4166L6.70642 16.638C7.00221 16.5242 7.1501 16.4673 7.28846 16.3931C7.41137 16.3271 7.52853 16.251 7.63873 16.1654C7.7628 16.0692 7.87484 15.9571 8.09893 15.733L17.4987 6.33326C18.4192 5.41279 18.4192 3.9204 17.4987 2.99993C16.5782 2.07945 15.0859 2.07945 14.1654 2.99992L4.7656 12.3997C4.54151 12.6238 4.42947 12.7358 4.33319 12.8599C4.24768 12.9701 4.17153 13.0873 4.10556 13.2102C4.03129 13.3485 3.97441 13.4964 3.86064 13.7922L2.08203 18.4166ZM2.08203 18.4166L3.79713 13.9574C3.91986 13.6383 3.98123 13.4787 4.08648 13.4057C4.17846 13.3418 4.29228 13.3176 4.40228 13.3386C4.52814 13.3627 4.64902 13.4836 4.89077 13.7253L6.77334 15.6079C7.01509 15.8496 7.13597 15.9705 7.16 16.0964C7.18101 16.2064 7.15685 16.3202 7.09299 16.4122C7.0199 16.5174 6.86035 16.5788 6.54126 16.7015L2.08203 18.4166Z" stroke="#ECECEC" stroke-width="2" stroke-linecap="round" stroke-linejoin="round"/>
</svg>
