<svg width="28" height="28" viewBox="0 0 28 28" fill="none" xmlns="http://www.w3.org/2000/svg">
<rect x="7.00293" y="3.61523" width="13.9711" height="6.92705" rx="3.46352" fill="white"/>
<path d="M7.00293 14.0105C7.00293 12.1032 8.54905 10.5571 10.4563 10.5571H13.9976V17.4638H10.4563C8.54905 17.4638 7.00293 15.9177 7.00293 14.0105Z" fill="white"/>
<path d="M7.00293 7.06858C7.00293 5.16135 8.54905 3.61523 10.4563 3.61523H13.9976V10.5219H10.4563C8.54905 10.5219 7.00293 8.97582 7.00293 7.06858Z" fill="white"/>
<path d="M7.00293 20.9314C7.00293 19.0241 8.54905 17.478 10.4563 17.478H13.9976V20.967C13.9976 22.8546 12.4674 24.3847 10.5799 24.3847H10.4563C8.54905 24.3847 7.00293 22.8386 7.00293 20.9314Z" fill="white"/>
<ellipse cx="17.4978" cy="14.0105" rx="3.5007" ry="3.46798" fill="white"/>
</svg>
